# xmcd
#
# Track frame offsets:
#       150
#       32358
#       50333
#       72197
#       96557
#       114542
#       133865
#       166491
#       187364
#       208762
#       227215
#       247153
#       269646
#       292521
#       308511
#       328857
#       347314
#
# Disc length: 4874 seconds
#
# Revision: 1
# Processed by: cddbd v1.5PL3 Copyright (c) Steve Scherf et al.
# Submitted via: MusiCat 1.1
#
DISCID=04130811
DTITLE=Simple Minds - The Best of Simple Minds - CD1
DYEAR=2004
DGENRE=
TTITLE0=Don't you forget about me (Remix)
TTITLE1=Promised you a miracle
TTITLE2=Waterfront
TTITLE3=Alive and Kicking
TTITLE4=Glittering prize
TTITLE5=All the things that she said
TTITLE6=Sanctify yourself (Ext Mix Theme 12)
TTITLE7=Someone somewhere in summertime
TTITLE8=Ghost dancing
TTITLE9=Up on the catwalk
TTITLE10=Speed your love to me
TTITLE11=Theme fr great cities (Fila Brazillia Remix)
TTITLE12=Love Song
TTITLE13=The american
TTITLE14=Sweat in bullet
TTITLE15=Life a Day
TTITLE16=i Travel
EXTD=\n\nby Snooker
EXTT0=
EXTT1=
EXTT2=
EXTT3=
EXTT4=
EXTT5=
EXTT6=
EXTT7=
EXTT8=
EXTT9=
EXTT10=
EXTT11=
EXTT12=
EXTT13=
EXTT14=
EXTT15=
EXTT16=
PLAYORDER=
